<?xml version="1.0" encoding="utf-8"?>
<svg width="400px" height="120px" viewBox="0 0 400 120" xmlns="http://www.w3.org/2000/svg" xmlns:xlink="http://www.w3.org/1999/xlink" aria-hidden="true" role="img" preserveAspectRatio="xMidYMid meet">
  <defs>
    <!-- Text gradient: light colors for dark background -->
    <linearGradient id="textGrad" x1="0%" y1="0%" x2="100%" y2="0%">
      <stop offset="0%" style="stop-color:#7BC5F5;stop-opacity:1" />
      <stop offset="100%" style="stop-color:#5BC0DE;stop-opacity:1" />
    </linearGradient>
    <!-- Drop shadow for better visibility -->
    <filter id="textShadow" x="-20%" y="-20%" width="140%" height="140%">
      <feDropShadow dx="1" dy="1" stdDeviation="1" flood-color="#000000" flood-opacity="0.5"/>
    </filter>
  </defs>
  <!-- Book Icon - Left side -->
  <g transform="translate(10, 20) scale(2)">
    <path fill="#4A9EFF" d="M32 7H4a4 4 0 0 0-4 4v15a4 4 0 0 0 4 4h11.416c.52.596 1.477 1 2.584 1s2.065-.404 2.584-1H32a4 4 0 0 0 4-4V11a4 4 0 0 0-4-4z"></path>
    <path fill="#292F33" d="M20 27a2 2 0 0 1-4 0V9a2 2 0 0 1 4 0v18z"></path>
    <path fill="#99AAB5" d="M18 26a2 2 0 0 1-2 2H4a2 2 0 0 1-2-2V8a2 2 0 0 1 2-2h12a2 2 0 0 1 2 2v18z"></path>
    <path fill="#E1E8ED" d="M18 26c-.999-1.998-3.657-2-4-2c-2 0-5 2-8 2c-1 0-2-.896-2-2V8c0-1.104 1-2 2-2c3.255 0 6-2 8-2c3 0 4 1.896 4 3v19z"></path>
    <path fill="#99AAB5" d="M34 26a2 2 0 0 1-2 2H20a2 2 0 0 1-2-2V8a2 2 0 0 1 2-2h12a2 2 0 0 1 2 2v18z"></path>
    <path fill="#CCD6DD" d="M18 26c.999-1.998 3.657-2 4-2c2 0 5 2 8 2c1 0 2-.896 2-2V8c0-1.104-1-2-2-2c-3.256 0-6-2-8-2c-3 0-4 1.896-4 3v19z"></path>
  </g>
  <!-- Text: ehabvocab - Right side with shadow for dark background -->
  <text x="100" y="75" font-family="Arial, sans-serif" font-size="48" font-weight="bold" fill="url(#textGrad)" filter="url(#textShadow)">ehabvocab</text>
</svg>
